<svg width="892" height="1509" viewBox="0 0 892 1509" fill="none" xmlns="http://www.w3.org/2000/svg">
<rect width="892" height="1509" fill="white"/>
<g filter="url(#filter0_d_3_3)">
<path d="M115 101C115 84.4315 128.431 71 145 71H752C768.569 71 782 84.4315 782 101V1304C782 1320.57 768.569 1334 752 1334H145C128.431 1334 115 1320.57 115 1304V101Z" fill="#FBBDAE" fill-opacity="0.27" shape-rendering="crispEdges"/>
<path d="M118 101C118 86.0883 130.088 74 145 74H752C766.912 74 779 86.0883 779 101V1304C779 1318.91 766.912 1331 752 1331H145C130.088 1331 118 1318.91 118 1304V101Z" stroke="#FE8E74" stroke-width="6" shape-rendering="crispEdges"/>
</g>
<path d="M178.18 223V168.455H200.925C205.009 168.455 208.427 169.032 211.179 170.186C213.949 171.34 216.026 172.956 217.411 175.033C218.814 177.11 219.515 179.516 219.515 182.251C219.515 184.328 219.08 186.184 218.21 187.817C217.34 189.433 216.142 190.773 214.615 191.839C213.088 192.904 211.321 193.65 209.315 194.076V194.609C211.516 194.715 213.549 195.31 215.414 196.393C217.296 197.476 218.805 198.985 219.941 200.921C221.078 202.838 221.646 205.111 221.646 207.739C221.646 210.669 220.9 213.288 219.409 215.596C217.917 217.886 215.76 219.697 212.937 221.029C210.114 222.343 206.687 223 202.656 223H178.18ZM191.364 212.373H199.513C202.372 212.373 204.476 211.832 205.826 210.749C207.193 209.665 207.876 208.156 207.876 206.221C207.876 204.818 207.548 203.611 206.891 202.599C206.234 201.569 205.302 200.779 204.094 200.228C202.887 199.66 201.44 199.376 199.753 199.376H191.364V212.373ZM191.364 190.88H198.661C200.099 190.88 201.378 190.64 202.496 190.161C203.615 189.681 204.485 188.989 205.106 188.083C205.746 187.178 206.065 186.086 206.065 184.808C206.065 182.979 205.417 181.54 204.121 180.493C202.825 179.445 201.076 178.922 198.874 178.922H191.364V190.88ZM227.985 168.455H244.311L258.16 202.226H258.8L272.649 168.455H288.975V223H276.138V189.495H275.685L262.582 222.654H254.378L241.275 189.309H240.822V223H227.985V168.455ZM310.382 168.455V223H297.199V168.455H310.382ZM384.283 188.217H370.967C370.789 186.849 370.425 185.615 369.875 184.515C369.324 183.414 368.596 182.473 367.691 181.691C366.785 180.91 365.711 180.315 364.468 179.907C363.243 179.481 361.885 179.268 360.393 179.268C357.748 179.268 355.466 179.916 353.548 181.212C351.649 182.508 350.184 184.381 349.154 186.832C348.142 189.282 347.636 192.247 347.636 195.727C347.636 199.349 348.151 202.386 349.18 204.836C350.228 207.268 351.693 209.106 353.575 210.349C355.475 211.574 357.721 212.187 360.313 212.187C361.769 212.187 363.092 212 364.282 211.627C365.489 211.255 366.546 210.713 367.451 210.003C368.374 209.275 369.129 208.396 369.715 207.366C370.319 206.319 370.736 205.138 370.967 203.824L384.283 203.904C384.053 206.319 383.351 208.698 382.179 211.042C381.025 213.385 379.436 215.525 377.412 217.46C375.388 219.378 372.92 220.905 370.008 222.041C367.114 223.178 363.793 223.746 360.047 223.746C355.111 223.746 350.69 222.663 346.783 220.496C342.895 218.312 339.823 215.134 337.568 210.962C335.313 206.789 334.186 201.711 334.186 195.727C334.186 189.726 335.331 184.639 337.622 180.466C339.912 176.294 343.01 173.124 346.917 170.958C350.823 168.792 355.2 167.709 360.047 167.709C363.35 167.709 366.403 168.17 369.209 169.094C372.014 169.999 374.482 171.331 376.613 173.089C378.744 174.829 380.475 176.968 381.807 179.507C383.138 182.047 383.964 184.95 384.283 188.217ZM403.36 223.692C400.75 223.692 398.433 223.257 396.408 222.387C394.402 221.5 392.813 220.168 391.641 218.392C390.487 216.599 389.91 214.353 389.91 211.654C389.91 209.381 390.309 207.464 391.108 205.901C391.907 204.339 393.008 203.069 394.411 202.093C395.814 201.116 397.429 200.379 399.258 199.882C401.087 199.367 403.04 199.021 405.118 198.843C407.444 198.63 409.317 198.408 410.737 198.178C412.158 197.929 413.188 197.583 413.827 197.139C414.484 196.677 414.812 196.029 414.812 195.195V195.061C414.812 193.694 414.342 192.638 413.401 191.892C412.46 191.146 411.19 190.773 409.592 190.773C407.87 190.773 406.485 191.146 405.437 191.892C404.39 192.638 403.724 193.668 403.44 194.982L391.428 194.555C391.783 192.07 392.697 189.85 394.171 187.897C395.663 185.926 397.705 184.381 400.297 183.263C402.907 182.126 406.041 181.558 409.699 181.558C412.309 181.558 414.714 181.869 416.916 182.49C419.118 183.094 421.036 183.982 422.669 185.154C424.303 186.308 425.563 187.728 426.451 189.415C427.357 191.102 427.809 193.028 427.809 195.195V223H415.558V217.3H415.238C414.51 218.685 413.578 219.857 412.442 220.816C411.323 221.775 410 222.494 408.473 222.973C406.964 223.453 405.26 223.692 403.36 223.692ZM407.381 215.17C408.784 215.17 410.045 214.886 411.163 214.317C412.3 213.749 413.205 212.968 413.88 211.974C414.555 210.962 414.892 209.79 414.892 208.458V204.57C414.519 204.765 414.066 204.942 413.534 205.102C413.019 205.262 412.451 205.413 411.829 205.555C411.208 205.697 410.569 205.821 409.912 205.928C409.255 206.034 408.624 206.132 408.021 206.221C406.795 206.416 405.748 206.718 404.878 207.126C404.026 207.535 403.369 208.067 402.907 208.724C402.463 209.364 402.241 210.127 402.241 211.015C402.241 212.364 402.721 213.394 403.679 214.104C404.656 214.815 405.89 215.17 407.381 215.17ZM448.797 168.455V223H435.773V168.455H448.797ZM476.182 223.772C471.868 223.772 468.166 222.885 465.076 221.109C462.005 219.333 459.643 216.865 457.992 213.705C456.34 210.527 455.515 206.851 455.515 202.679C455.515 198.488 456.34 194.813 457.992 191.652C459.661 188.474 462.031 185.997 465.103 184.222C468.192 182.446 471.877 181.558 476.156 181.558C479.938 181.558 483.231 182.242 486.037 183.609C488.86 184.976 491.062 186.912 492.642 189.415C494.24 191.901 495.083 194.822 495.172 198.178H483.001C482.752 196.082 482.042 194.44 480.87 193.25C479.716 192.061 478.207 191.466 476.342 191.466C474.833 191.466 473.51 191.892 472.374 192.744C471.237 193.579 470.35 194.822 469.71 196.473C469.089 198.107 468.778 200.131 468.778 202.545C468.778 204.96 469.089 207.002 469.71 208.671C470.35 210.322 471.237 211.574 472.374 212.426C473.51 213.261 474.833 213.678 476.342 213.678C477.55 213.678 478.615 213.421 479.538 212.906C480.479 212.391 481.252 211.636 481.855 210.642C482.459 209.63 482.841 208.405 483.001 206.967H495.172C495.048 210.34 494.204 213.288 492.642 215.809C491.097 218.33 488.922 220.292 486.117 221.695C483.329 223.08 480.018 223.772 476.182 223.772ZM528.231 205.342V182.091H541.228V223H528.817V215.383H528.391C527.485 217.886 525.941 219.875 523.757 221.349C521.59 222.805 518.971 223.533 515.9 223.533C513.112 223.533 510.662 222.893 508.549 221.615C506.436 220.337 504.794 218.552 503.622 216.262C502.45 213.953 501.855 211.255 501.837 208.165V182.091H514.861V205.608C514.879 207.828 515.465 209.577 516.619 210.855C517.773 212.134 519.344 212.773 521.333 212.773C522.629 212.773 523.792 212.489 524.822 211.92C525.869 211.335 526.695 210.491 527.299 209.39C527.92 208.272 528.231 206.922 528.231 205.342ZM562.542 168.455V223H549.518V168.455H562.542ZM582.364 223.692C579.754 223.692 577.436 223.257 575.412 222.387C573.406 221.5 571.817 220.168 570.645 218.392C569.491 216.599 568.914 214.353 568.914 211.654C568.914 209.381 569.313 207.464 570.112 205.901C570.911 204.339 572.012 203.069 573.415 202.093C574.817 201.116 576.433 200.379 578.262 199.882C580.091 199.367 582.044 199.021 584.121 198.843C586.447 198.63 588.321 198.408 589.741 198.178C591.162 197.929 592.191 197.583 592.831 197.139C593.488 196.677 593.816 196.029 593.816 195.195V195.061C593.816 193.694 593.346 192.638 592.404 191.892C591.463 191.146 590.194 190.773 588.596 190.773C586.874 190.773 585.489 191.146 584.441 191.892C583.393 192.638 582.728 193.668 582.444 194.982L570.432 194.555C570.787 192.07 571.701 189.85 573.175 187.897C574.667 185.926 576.708 184.381 579.301 183.263C581.911 182.126 585.045 181.558 588.702 181.558C591.313 181.558 593.718 181.869 595.92 182.49C598.122 183.094 600.039 183.982 601.673 185.154C603.306 186.308 604.567 187.728 605.455 189.415C606.36 191.102 606.813 193.028 606.813 195.195V223H594.562V217.3H594.242C593.514 218.685 592.582 219.857 591.446 220.816C590.327 221.775 589.004 222.494 587.477 222.973C585.968 223.453 584.263 223.692 582.364 223.692ZM586.385 215.17C587.788 215.17 589.049 214.886 590.167 214.317C591.304 213.749 592.209 212.968 592.884 211.974C593.559 210.962 593.896 209.79 593.896 208.458V204.57C593.523 204.765 593.07 204.942 592.538 205.102C592.023 205.262 591.455 205.413 590.833 205.555C590.212 205.697 589.572 205.821 588.915 205.928C588.259 206.034 587.628 206.132 587.025 206.221C585.799 206.416 584.752 206.718 583.882 207.126C583.029 207.535 582.373 208.067 581.911 208.724C581.467 209.364 581.245 210.127 581.245 211.015C581.245 212.364 581.724 213.394 582.683 214.104C583.66 214.815 584.894 215.17 586.385 215.17ZM637.868 182.091V191.679H612.06V182.091H637.868ZM617.467 172.29H630.49V210.136C630.49 210.935 630.615 211.583 630.863 212.08C631.13 212.56 631.511 212.906 632.009 213.119C632.506 213.314 633.1 213.412 633.793 213.412C634.29 213.412 634.814 213.368 635.364 213.279C635.933 213.172 636.359 213.083 636.643 213.012L638.614 222.414C637.992 222.592 637.113 222.814 635.977 223.08C634.858 223.346 633.518 223.515 631.955 223.586C628.901 223.728 626.282 223.373 624.098 222.521C621.932 221.651 620.272 220.301 619.118 218.472C617.982 216.643 617.431 214.344 617.467 211.574V172.29ZM663.17 223.772C658.873 223.772 655.18 222.893 652.09 221.136C649.018 219.36 646.648 216.892 644.979 213.732C643.328 210.553 642.502 206.869 642.502 202.679C642.502 198.471 643.328 194.786 644.979 191.626C646.648 188.447 649.018 185.979 652.09 184.222C655.18 182.446 658.873 181.558 663.17 181.558C667.467 181.558 671.151 182.446 674.223 184.222C677.312 185.979 679.683 188.447 681.334 191.626C683.003 194.786 683.837 198.471 683.837 202.679C683.837 206.869 683.003 210.553 681.334 213.732C679.683 216.892 677.312 219.36 674.223 221.136C671.151 222.893 667.467 223.772 663.17 223.772ZM663.25 213.945C664.812 213.945 666.135 213.465 667.218 212.506C668.301 211.548 669.127 210.216 669.695 208.511C670.281 206.807 670.574 204.836 670.574 202.599C670.574 200.326 670.281 198.337 669.695 196.633C669.127 194.928 668.301 193.597 667.218 192.638C666.135 191.679 664.812 191.2 663.25 191.2C661.634 191.2 660.267 191.679 659.148 192.638C658.047 193.597 657.204 194.928 656.618 196.633C656.05 198.337 655.766 200.326 655.766 202.599C655.766 204.836 656.05 206.807 656.618 208.511C657.204 210.216 658.047 211.548 659.148 212.506C660.267 213.465 661.634 213.945 663.25 213.945ZM690.509 223V182.091H703.16V189.548H703.586C704.332 186.849 705.548 184.843 707.235 183.529C708.922 182.197 710.884 181.532 713.121 181.532C713.725 181.532 714.346 181.576 714.985 181.665C715.624 181.736 716.219 181.851 716.77 182.011V193.33C716.148 193.117 715.331 192.949 714.319 192.824C713.325 192.7 712.437 192.638 711.656 192.638C710.111 192.638 708.718 192.984 707.475 193.676C706.249 194.351 705.282 195.301 704.572 196.526C703.879 197.734 703.533 199.154 703.533 200.788V223H690.509Z" fill="#F16240"/>
<path d="M408.243 340H403.584L414.053 310.909H419.124L429.593 340H424.934L416.709 316.193H416.482L408.243 340ZM409.025 328.608H424.138V332.301H409.025V328.608ZM442.249 348.636C440.516 348.636 439.025 348.409 437.775 347.955C436.534 347.5 435.521 346.899 434.735 346.151C433.949 345.402 433.362 344.583 432.973 343.693L436.624 342.188C436.88 342.604 437.221 343.045 437.647 343.509C438.082 343.982 438.669 344.384 439.408 344.716C440.156 345.047 441.117 345.213 442.292 345.213C443.901 345.213 445.232 344.82 446.283 344.034C447.334 343.258 447.86 342.017 447.86 340.312V336.023H447.59C447.334 336.487 446.965 337.003 446.482 337.571C446.008 338.139 445.355 338.632 444.522 339.048C443.688 339.465 442.604 339.673 441.269 339.673C439.545 339.673 437.992 339.271 436.61 338.466C435.237 337.652 434.148 336.454 433.343 334.872C432.547 333.281 432.15 331.326 432.15 329.006C432.15 326.686 432.542 324.697 433.328 323.04C434.124 321.383 435.213 320.114 436.596 319.233C437.978 318.343 439.545 317.898 441.297 317.898C442.651 317.898 443.745 318.125 444.578 318.58C445.412 319.025 446.06 319.545 446.525 320.142C446.998 320.739 447.363 321.264 447.618 321.719H447.931V318.182H452.093V340.483C452.093 342.358 451.657 343.897 450.786 345.099C449.915 346.302 448.736 347.192 447.249 347.77C445.772 348.348 444.105 348.636 442.249 348.636ZM442.206 336.151C443.428 336.151 444.46 335.866 445.303 335.298C446.155 334.721 446.799 333.897 447.235 332.827C447.68 331.747 447.902 330.455 447.902 328.949C447.902 327.481 447.685 326.188 447.249 325.071C446.813 323.954 446.174 323.082 445.331 322.457C444.489 321.823 443.447 321.506 442.206 321.506C440.928 321.506 439.863 321.837 439.01 322.5C438.158 323.153 437.514 324.044 437.078 325.17C436.652 326.297 436.439 327.557 436.439 328.949C436.439 330.379 436.657 331.634 437.093 332.713C437.528 333.793 438.172 334.635 439.025 335.241C439.886 335.848 440.947 336.151 442.206 336.151ZM467.192 340.44C465.042 340.44 463.191 339.981 461.638 339.062C460.095 338.134 458.901 336.832 458.059 335.156C457.225 333.471 456.809 331.496 456.809 329.233C456.809 326.998 457.225 325.028 458.059 323.324C458.901 321.619 460.076 320.289 461.581 319.332C463.096 318.376 464.867 317.898 466.894 317.898C468.125 317.898 469.318 318.101 470.473 318.509C471.629 318.916 472.666 319.555 473.584 320.426C474.503 321.297 475.227 322.429 475.757 323.821C476.288 325.204 476.553 326.884 476.553 328.864V330.369H459.209V327.188H472.391C472.391 326.07 472.164 325.08 471.709 324.219C471.255 323.348 470.615 322.661 469.792 322.159C468.977 321.657 468.021 321.406 466.922 321.406C465.729 321.406 464.687 321.7 463.797 322.287C462.917 322.865 462.235 323.622 461.752 324.56C461.278 325.488 461.042 326.496 461.042 327.585V330.071C461.042 331.529 461.297 332.77 461.809 333.793C462.329 334.815 463.054 335.597 463.982 336.136C464.91 336.667 465.994 336.932 467.235 336.932C468.04 336.932 468.774 336.818 469.436 336.591C470.099 336.354 470.672 336.004 471.155 335.54C471.638 335.076 472.007 334.503 472.263 333.821L476.283 334.545C475.961 335.729 475.383 336.766 474.55 337.656C473.726 338.537 472.689 339.223 471.439 339.716C470.199 340.199 468.783 340.44 467.192 340.44Z" fill="black"/>
<rect x="164" y="284" width="554" height="181" rx="30" fill="#FDC8BB" fill-opacity="0.56"/>
<rect x="315" y="366" width="262" height="70" rx="10" fill="white"/>
<rect x="164" y="500" width="554" height="98" rx="30" fill="#FDC8BB" fill-opacity="0.56"/>
<circle cx="246" cy="555" r="15" fill="white"/>
<circle cx="485" cy="555" r="15" fill="white"/>
<path d="M285.499 539.545H290.16L298.263 559.332H298.562L306.665 539.545H311.326V565H307.672V546.58H307.436L299.929 564.963H296.896L289.389 546.568H289.153V565H285.499V539.545ZM322.167 565.423C320.958 565.423 319.864 565.199 318.886 564.751C317.908 564.296 317.134 563.637 316.562 562.775C315.998 561.913 315.717 560.857 315.717 559.606C315.717 558.529 315.924 557.642 316.338 556.946C316.752 556.25 317.312 555.699 318.016 555.293C318.72 554.887 319.507 554.58 320.377 554.373C321.248 554.166 322.134 554.009 323.037 553.901C324.181 553.768 325.109 553.661 325.821 553.578C326.534 553.487 327.052 553.342 327.375 553.143C327.698 552.944 327.86 552.621 327.86 552.173V552.086C327.86 551.001 327.553 550.16 326.94 549.563C326.335 548.967 325.432 548.668 324.23 548.668C322.979 548.668 321.993 548.946 321.272 549.501C320.56 550.048 320.067 550.657 319.793 551.328L316.301 550.533C316.715 549.373 317.32 548.436 318.115 547.724C318.919 547.003 319.843 546.481 320.887 546.158C321.931 545.826 323.029 545.661 324.181 545.661C324.943 545.661 325.751 545.752 326.604 545.934C327.466 546.108 328.27 546.431 329.016 546.903C329.77 547.376 330.387 548.051 330.868 548.929C331.348 549.799 331.588 550.93 331.588 552.322V565H327.959V562.39H327.81C327.57 562.871 327.209 563.343 326.729 563.807C326.248 564.271 325.631 564.656 324.877 564.963C324.123 565.269 323.22 565.423 322.167 565.423ZM322.975 562.44C324.003 562.44 324.881 562.237 325.61 561.831C326.348 561.425 326.907 560.894 327.288 560.24C327.677 559.577 327.872 558.868 327.872 558.114V555.653C327.74 555.786 327.483 555.91 327.102 556.026C326.729 556.134 326.302 556.229 325.821 556.312C325.341 556.387 324.873 556.457 324.417 556.523C323.961 556.581 323.58 556.631 323.273 556.673C322.553 556.764 321.894 556.917 321.297 557.132C320.709 557.348 320.237 557.659 319.88 558.065C319.532 558.462 319.358 558.993 319.358 559.656C319.358 560.575 319.698 561.271 320.377 561.744C321.057 562.208 321.923 562.44 322.975 562.44ZM340.255 539.545V565H336.538V539.545H340.255ZM353.482 565.385C351.601 565.385 349.981 564.983 348.622 564.18C347.272 563.368 346.228 562.228 345.49 560.762C344.761 559.287 344.396 557.559 344.396 555.579C344.396 553.623 344.761 551.9 345.49 550.408C346.228 548.917 347.255 547.753 348.573 546.916C349.898 546.079 351.448 545.661 353.221 545.661C354.298 545.661 355.342 545.839 356.353 546.195C357.364 546.551 358.271 547.111 359.075 547.873C359.879 548.635 360.513 549.625 360.977 550.843C361.441 552.053 361.673 553.524 361.673 555.256V556.573H346.497V553.789H358.031C358.031 552.811 357.832 551.945 357.434 551.191C357.037 550.429 356.477 549.828 355.757 549.389C355.044 548.95 354.207 548.73 353.246 548.73C352.202 548.73 351.29 548.987 350.512 549.501C349.741 550.007 349.144 550.669 348.722 551.49C348.307 552.302 348.1 553.184 348.1 554.137V556.312C348.1 557.588 348.324 558.674 348.771 559.569C349.227 560.463 349.861 561.147 350.673 561.619C351.485 562.083 352.434 562.315 353.519 562.315C354.224 562.315 354.866 562.216 355.446 562.017C356.026 561.81 356.527 561.503 356.95 561.097C357.372 560.691 357.695 560.19 357.919 559.593L361.437 560.227C361.155 561.263 360.649 562.17 359.92 562.949C359.199 563.72 358.292 564.321 357.198 564.751C356.113 565.174 354.874 565.385 353.482 565.385Z" fill="black"/>
<path d="M522.914 565V539.545H538.699V542.852H526.754V550.607H537.567V553.901H526.754V565H522.914ZM549.95 565.385C548.069 565.385 546.449 564.983 545.09 564.18C543.739 563.368 542.695 562.228 541.958 560.762C541.229 559.287 540.864 557.559 540.864 555.579C540.864 553.623 541.229 551.9 541.958 550.408C542.695 548.917 543.723 547.753 545.04 546.916C546.366 546.079 547.916 545.661 549.689 545.661C550.766 545.661 551.81 545.839 552.821 546.195C553.832 546.551 554.739 547.111 555.543 547.873C556.347 548.635 556.98 549.625 557.445 550.843C557.909 552.053 558.141 553.524 558.141 555.256V556.573H542.965V553.789H554.499C554.499 552.811 554.3 551.945 553.902 551.191C553.505 550.429 552.945 549.828 552.224 549.389C551.512 548.95 550.675 548.73 549.714 548.73C548.67 548.73 547.758 548.987 546.979 549.501C546.209 550.007 545.612 550.669 545.19 551.49C544.775 552.302 544.568 553.184 544.568 554.137V556.312C544.568 557.588 544.792 558.674 545.239 559.569C545.695 560.463 546.329 561.147 547.141 561.619C547.953 562.083 548.902 562.315 549.987 562.315C550.691 562.315 551.334 562.216 551.914 562.017C552.494 561.81 552.995 561.503 553.418 561.097C553.84 560.691 554.163 560.19 554.387 559.593L557.904 560.227C557.623 561.263 557.117 562.17 556.388 562.949C555.667 563.72 554.76 564.321 553.666 564.751C552.581 565.174 551.342 565.385 549.95 565.385ZM562.264 565V545.909H565.831V549.016H566.067C566.465 547.964 567.115 547.144 568.018 546.555C568.922 545.959 570.003 545.661 571.262 545.661C572.538 545.661 573.607 545.959 574.469 546.555C575.339 547.152 575.981 547.972 576.396 549.016H576.594C577.05 547.997 577.775 547.185 578.77 546.58C579.764 545.967 580.949 545.661 582.324 545.661C584.056 545.661 585.469 546.203 586.562 547.289C587.665 548.374 588.216 550.011 588.216 552.198V565H584.499V552.546C584.499 551.254 584.147 550.317 583.443 549.737C582.739 549.157 581.897 548.867 580.92 548.867C579.71 548.867 578.77 549.24 578.098 549.986C577.427 550.723 577.092 551.672 577.092 552.832V565H573.388V552.31C573.388 551.274 573.065 550.442 572.418 549.812C571.772 549.182 570.931 548.867 569.895 548.867C569.191 548.867 568.54 549.054 567.944 549.426C567.356 549.791 566.879 550.301 566.515 550.955C566.158 551.61 565.98 552.368 565.98 553.23V565H562.264ZM598.752 565.423C597.542 565.423 596.449 565.199 595.471 564.751C594.493 564.296 593.718 563.637 593.147 562.775C592.583 561.913 592.302 560.857 592.302 559.606C592.302 558.529 592.509 557.642 592.923 556.946C593.337 556.25 593.897 555.699 594.601 555.293C595.305 554.887 596.092 554.58 596.962 554.373C597.832 554.166 598.719 554.009 599.622 553.901C600.766 553.768 601.694 553.661 602.406 553.578C603.119 553.487 603.637 553.342 603.96 553.143C604.283 552.944 604.445 552.621 604.445 552.173V552.086C604.445 551.001 604.138 550.16 603.525 549.563C602.92 548.967 602.017 548.668 600.815 548.668C599.564 548.668 598.578 548.946 597.857 549.501C597.145 550.048 596.652 550.657 596.378 551.328L592.886 550.533C593.3 549.373 593.905 548.436 594.7 547.724C595.504 547.003 596.428 546.481 597.472 546.158C598.516 545.826 599.614 545.661 600.766 545.661C601.528 545.661 602.336 545.752 603.189 545.934C604.051 546.108 604.855 546.431 605.601 546.903C606.355 547.376 606.972 548.051 607.453 548.929C607.933 549.799 608.173 550.93 608.173 552.322V565H604.544V562.39H604.395C604.155 562.871 603.794 563.343 603.314 563.807C602.833 564.271 602.216 564.656 601.462 564.963C600.708 565.269 599.805 565.423 598.752 565.423ZM599.56 562.44C600.588 562.44 601.466 562.237 602.195 561.831C602.932 561.425 603.492 560.894 603.873 560.24C604.262 559.577 604.457 558.868 604.457 558.114V555.653C604.325 555.786 604.068 555.91 603.687 556.026C603.314 556.134 602.887 556.229 602.406 556.312C601.926 556.387 601.458 556.457 601.002 556.523C600.546 556.581 600.165 556.631 599.858 556.673C599.138 556.764 598.479 556.917 597.882 557.132C597.294 557.348 596.822 557.659 596.465 558.065C596.117 558.462 595.943 558.993 595.943 559.656C595.943 560.575 596.283 561.271 596.962 561.744C597.642 562.208 598.508 562.44 599.56 562.44ZM616.839 539.545V565H613.123V539.545H616.839ZM630.067 565.385C628.186 565.385 626.566 564.983 625.207 564.18C623.857 563.368 622.813 562.228 622.075 560.762C621.346 559.287 620.981 557.559 620.981 555.579C620.981 553.623 621.346 551.9 622.075 550.408C622.813 548.917 623.84 547.753 625.158 546.916C626.483 546.079 628.033 545.661 629.806 545.661C630.883 545.661 631.927 545.839 632.938 546.195C633.949 546.551 634.856 547.111 635.66 547.873C636.464 548.635 637.098 549.625 637.562 550.843C638.026 552.053 638.258 553.524 638.258 555.256V556.573H623.082V553.789H634.616C634.616 552.811 634.417 551.945 634.019 551.191C633.622 550.429 633.062 549.828 632.342 549.389C631.629 548.95 630.792 548.73 629.831 548.73C628.787 548.73 627.875 548.987 627.097 549.501C626.326 550.007 625.729 550.669 625.307 551.49C624.892 552.302 624.685 553.184 624.685 554.137V556.312C624.685 557.588 624.909 558.674 625.356 559.569C625.812 560.463 626.446 561.147 627.258 561.619C628.07 562.083 629.019 562.315 630.104 562.315C630.809 562.315 631.451 562.216 632.031 562.017C632.611 561.81 633.112 561.503 633.535 561.097C633.957 560.691 634.28 560.19 634.504 559.593L638.022 560.227C637.74 561.263 637.234 562.17 636.505 562.949C635.784 563.72 634.877 564.321 633.783 564.751C632.698 565.174 631.459 565.385 630.067 565.385Z" fill="black"/>
<rect x="169" y="633" width="246" height="163" rx="30" fill="#FDC8BB" fill-opacity="0.56"/>
<rect x="211" y="713" width="161" height="48" rx="10" fill="white"/>
<path d="M213.404 682V660.182H216.696V669.663H227.573V660.182H230.875V682H227.573V672.487H216.696V682H213.404ZM242.466 682.33C240.854 682.33 239.466 681.986 238.301 681.297C237.143 680.601 236.248 679.624 235.616 678.367C234.991 677.103 234.679 675.622 234.679 673.925C234.679 672.249 234.991 670.771 235.616 669.493C236.248 668.214 237.129 667.217 238.258 666.499C239.395 665.782 240.723 665.423 242.243 665.423C243.166 665.423 244.061 665.576 244.927 665.881C245.794 666.187 246.571 666.666 247.26 667.32C247.949 667.973 248.493 668.822 248.89 669.866C249.288 670.903 249.487 672.163 249.487 673.648V674.777H236.479V672.391H246.366C246.366 671.553 246.195 670.81 245.854 670.164C245.513 669.511 245.034 668.996 244.416 668.619C243.805 668.243 243.088 668.055 242.264 668.055C241.369 668.055 240.588 668.275 239.92 668.715C239.26 669.148 238.748 669.717 238.386 670.42C238.031 671.116 237.853 671.872 237.853 672.689V674.553C237.853 675.647 238.045 676.577 238.429 677.344C238.819 678.112 239.363 678.697 240.059 679.102C240.755 679.5 241.568 679.699 242.498 679.699C243.102 679.699 243.652 679.614 244.15 679.443C244.647 679.266 245.076 679.003 245.439 678.655C245.801 678.307 246.078 677.877 246.27 677.366L249.285 677.909C249.043 678.797 248.61 679.575 247.985 680.242C247.367 680.903 246.589 681.418 245.652 681.787C244.721 682.149 243.66 682.33 242.466 682.33ZM253.021 682V665.636H256.207V682H253.021ZM254.63 663.112C254.076 663.112 253.6 662.927 253.202 662.558C252.812 662.181 252.616 661.734 252.616 661.215C252.616 660.69 252.812 660.242 253.202 659.873C253.6 659.496 254.076 659.308 254.63 659.308C255.184 659.308 255.656 659.496 256.047 659.873C256.445 660.242 256.643 660.69 256.643 661.215C256.643 661.734 256.445 662.181 256.047 662.558C255.656 662.927 255.184 663.112 254.63 663.112ZM267.353 688.477C266.053 688.477 264.934 688.307 263.997 687.966C263.066 687.625 262.307 687.174 261.717 686.613C261.128 686.052 260.687 685.438 260.396 684.77L263.134 683.641C263.326 683.953 263.581 684.283 263.901 684.631C264.228 684.987 264.668 685.288 265.222 685.537C265.783 685.786 266.504 685.91 267.385 685.91C268.592 685.91 269.59 685.615 270.378 685.026C271.167 684.443 271.561 683.513 271.561 682.234V679.017H271.358C271.167 679.365 270.89 679.752 270.527 680.178C270.172 680.604 269.682 680.974 269.057 681.286C268.432 681.599 267.619 681.755 266.618 681.755C265.325 681.755 264.16 681.453 263.123 680.849C262.093 680.239 261.277 679.34 260.673 678.154C260.076 676.961 259.778 675.494 259.778 673.754C259.778 672.014 260.073 670.523 260.662 669.28C261.259 668.037 262.076 667.085 263.113 666.425C264.15 665.757 265.325 665.423 266.639 665.423C267.655 665.423 268.475 665.594 269.1 665.935C269.725 666.268 270.211 666.659 270.559 667.107C270.915 667.554 271.188 667.948 271.38 668.289H271.614V665.636H274.736V682.362C274.736 683.768 274.409 684.923 273.755 685.825C273.102 686.727 272.218 687.394 271.103 687.827C269.995 688.261 268.745 688.477 267.353 688.477ZM267.321 679.113C268.237 679.113 269.011 678.9 269.643 678.474C270.282 678.04 270.765 677.423 271.092 676.62C271.426 675.81 271.593 674.841 271.593 673.712C271.593 672.611 271.429 671.641 271.103 670.803C270.776 669.965 270.297 669.312 269.665 668.843C269.032 668.367 268.251 668.129 267.321 668.129C266.362 668.129 265.563 668.378 264.924 668.875C264.285 669.365 263.802 670.033 263.475 670.878C263.155 671.723 262.995 672.668 262.995 673.712C262.995 674.784 263.159 675.725 263.486 676.535C263.812 677.344 264.295 677.977 264.934 678.431C265.581 678.886 266.376 679.113 267.321 679.113ZM282.193 672.284V682H279.008V660.182H282.15V668.3H282.353C282.736 667.419 283.322 666.719 284.111 666.201C284.899 665.683 285.929 665.423 287.2 665.423C288.322 665.423 289.302 665.654 290.14 666.116C290.986 666.577 291.639 667.266 292.101 668.183C292.569 669.092 292.804 670.228 292.804 671.592V682H289.618V671.975C289.618 670.775 289.309 669.844 288.691 669.184C288.074 668.516 287.214 668.183 286.113 668.183C285.361 668.183 284.686 668.342 284.089 668.662C283.5 668.982 283.035 669.45 282.694 670.068C282.36 670.679 282.193 671.418 282.193 672.284ZM304.693 665.636V668.193H295.755V665.636H304.693ZM298.152 661.716H301.337V677.195C301.337 677.813 301.429 678.278 301.614 678.591C301.799 678.896 302.037 679.106 302.328 679.219C302.626 679.326 302.949 679.379 303.297 679.379C303.553 679.379 303.777 679.362 303.968 679.326C304.16 679.29 304.309 679.262 304.416 679.241L304.991 681.872C304.807 681.943 304.544 682.014 304.203 682.085C303.862 682.163 303.436 682.206 302.924 682.213C302.086 682.227 301.305 682.078 300.581 681.766C299.856 681.453 299.27 680.97 298.823 680.317C298.375 679.663 298.152 678.843 298.152 677.856V661.716ZM309.143 672.945C309.143 670.274 309.495 667.817 310.198 665.572C310.901 663.328 311.927 661.258 313.277 659.362H316.196C315.67 660.065 315.18 660.928 314.726 661.95C314.271 662.973 313.873 664.095 313.533 665.317C313.192 666.531 312.925 667.792 312.734 669.099C312.542 670.398 312.446 671.68 312.446 672.945C312.446 674.635 312.613 676.347 312.947 678.08C313.28 679.812 313.731 681.421 314.3 682.906C314.868 684.39 315.5 685.601 316.196 686.538H313.277C311.927 684.642 310.901 682.572 310.198 680.327C309.495 678.083 309.143 675.622 309.143 672.945ZM326.154 682.33C324.57 682.33 323.207 681.972 322.063 681.254C320.927 680.53 320.053 679.532 319.443 678.261C318.832 676.989 318.526 675.533 318.526 673.893C318.526 672.231 318.839 670.764 319.464 669.493C320.089 668.214 320.97 667.217 322.106 666.499C323.242 665.782 324.581 665.423 326.122 665.423C327.365 665.423 328.473 665.654 329.446 666.116C330.419 666.57 331.204 667.21 331.801 668.033C332.404 668.857 332.763 669.82 332.877 670.92H329.776C329.606 670.153 329.215 669.493 328.604 668.939C328.001 668.385 327.191 668.108 326.176 668.108C325.288 668.108 324.51 668.342 323.842 668.811C323.182 669.273 322.667 669.933 322.298 670.793C321.928 671.645 321.744 672.653 321.744 673.818C321.744 675.011 321.925 676.041 322.287 676.908C322.649 677.774 323.161 678.445 323.821 678.921C324.489 679.397 325.274 679.635 326.176 679.635C326.779 679.635 327.326 679.525 327.816 679.305C328.313 679.077 328.729 678.754 329.063 678.335C329.403 677.916 329.641 677.412 329.776 676.822H332.877C332.763 677.881 332.418 678.825 331.843 679.656C331.268 680.487 330.497 681.141 329.531 681.616C328.573 682.092 327.447 682.33 326.154 682.33ZM336.283 682V665.636H339.34V668.3H339.543C339.884 667.398 340.441 666.695 341.215 666.19C341.99 665.679 342.916 665.423 343.996 665.423C345.09 665.423 346.006 665.679 346.745 666.19C347.49 666.702 348.041 667.405 348.396 668.3H348.566C348.957 667.426 349.578 666.73 350.431 666.212C351.283 665.686 352.299 665.423 353.478 665.423C354.962 665.423 356.173 665.888 357.11 666.819C358.055 667.749 358.527 669.152 358.527 671.027V682H355.342V671.325C355.342 670.217 355.04 669.415 354.436 668.918C353.833 668.42 353.112 668.172 352.274 668.172C351.237 668.172 350.431 668.491 349.855 669.131C349.28 669.763 348.992 670.576 348.992 671.57V682H345.818V671.123C345.818 670.235 345.541 669.521 344.987 668.982C344.433 668.442 343.712 668.172 342.824 668.172C342.22 668.172 341.663 668.332 341.152 668.651C340.647 668.964 340.239 669.401 339.926 669.962C339.621 670.523 339.468 671.173 339.468 671.911V682H336.283ZM368.922 672.945C368.922 675.622 368.571 678.083 367.868 680.327C367.165 682.572 366.138 684.642 364.789 686.538H361.87C362.395 685.835 362.885 684.972 363.34 683.95C363.794 682.927 364.192 681.808 364.533 680.594C364.874 679.372 365.14 678.108 365.332 676.801C365.524 675.494 365.62 674.209 365.62 672.945C365.62 671.261 365.453 669.553 365.119 667.82C364.785 666.087 364.334 664.479 363.766 662.994C363.198 661.51 362.566 660.299 361.87 659.362H364.789C366.138 661.258 367.165 663.328 367.868 665.572C368.571 667.817 368.922 670.274 368.922 672.945Z" fill="black"/>
<rect x="169" y="831" width="554" height="79" rx="15" fill="#F88A70"/>
<path d="M366.42 864.277H363.096C362.968 863.567 362.73 862.942 362.382 862.402C362.034 861.862 361.608 861.404 361.104 861.028C360.6 860.651 360.035 860.367 359.41 860.175C358.792 859.984 358.135 859.888 357.439 859.888C356.182 859.888 355.056 860.204 354.062 860.836C353.075 861.468 352.293 862.395 351.718 863.616C351.15 864.838 350.866 866.33 350.866 868.091C350.866 869.866 351.15 871.365 351.718 872.587C352.293 873.808 353.078 874.732 354.073 875.357C355.067 875.982 356.185 876.294 357.428 876.294C358.117 876.294 358.771 876.202 359.389 876.017C360.014 875.825 360.578 875.545 361.082 875.175C361.587 874.806 362.013 874.355 362.361 873.822C362.716 873.283 362.961 872.665 363.096 871.969L366.42 871.979C366.242 873.052 365.898 874.039 365.386 874.941C364.882 875.836 364.232 876.61 363.437 877.263C362.649 877.91 361.747 878.411 360.731 878.766C359.715 879.121 358.607 879.298 357.407 879.298C355.518 879.298 353.835 878.851 352.357 877.956C350.88 877.054 349.715 875.765 348.863 874.089C348.018 872.413 347.595 870.413 347.595 868.091C347.595 865.761 348.021 863.762 348.874 862.093C349.726 860.417 350.891 859.131 352.368 858.237C353.845 857.335 355.525 856.884 357.407 856.884C358.565 856.884 359.644 857.05 360.646 857.384C361.654 857.711 362.56 858.194 363.362 858.833C364.165 859.465 364.829 860.239 365.354 861.156C365.88 862.065 366.235 863.105 366.42 864.277ZM374.865 879.362C373.828 879.362 372.891 879.17 372.053 878.787C371.215 878.396 370.551 877.832 370.061 877.093C369.578 876.354 369.336 875.449 369.336 874.376C369.336 873.453 369.514 872.693 369.869 872.097C370.224 871.5 370.703 871.028 371.307 870.68C371.911 870.332 372.585 870.069 373.331 869.891C374.077 869.714 374.837 869.579 375.611 869.487C376.591 869.373 377.387 869.281 377.997 869.21C378.608 869.131 379.052 869.007 379.329 868.837C379.606 868.666 379.745 868.389 379.745 868.006V867.931C379.745 867.001 379.482 866.28 378.956 865.768C378.438 865.257 377.664 865.001 376.634 865.001C375.561 865.001 374.716 865.239 374.098 865.715C373.487 866.184 373.065 866.706 372.831 867.281L369.837 866.599C370.192 865.605 370.71 864.803 371.392 864.192C372.081 863.574 372.873 863.126 373.768 862.849C374.663 862.565 375.604 862.423 376.591 862.423C377.245 862.423 377.937 862.501 378.669 862.658C379.407 862.807 380.096 863.084 380.735 863.489C381.382 863.893 381.911 864.472 382.323 865.225C382.735 865.971 382.941 866.94 382.941 868.134V879H379.83V876.763H379.702C379.496 877.175 379.187 877.58 378.775 877.977C378.363 878.375 377.834 878.705 377.188 878.968C376.541 879.231 375.767 879.362 374.865 879.362ZM375.558 876.805C376.438 876.805 377.191 876.631 377.816 876.283C378.448 875.935 378.928 875.481 379.255 874.92C379.588 874.352 379.755 873.744 379.755 873.098V870.989C379.642 871.102 379.421 871.209 379.095 871.308C378.775 871.401 378.409 871.482 377.997 871.553C377.585 871.617 377.184 871.678 376.794 871.734C376.403 871.784 376.076 871.827 375.813 871.862C375.196 871.94 374.631 872.072 374.12 872.256C373.615 872.441 373.21 872.707 372.905 873.055C372.607 873.396 372.458 873.851 372.458 874.419C372.458 875.207 372.749 875.804 373.331 876.209C373.914 876.607 374.656 876.805 375.558 876.805ZM390.369 857.182V879H387.183V857.182H390.369ZM401.547 879.33C399.963 879.33 398.599 878.972 397.456 878.254C396.32 877.53 395.446 876.532 394.835 875.261C394.224 873.989 393.919 872.533 393.919 870.893C393.919 869.231 394.231 867.764 394.856 866.493C395.481 865.214 396.362 864.217 397.498 863.499C398.635 862.782 399.974 862.423 401.515 862.423C402.758 862.423 403.866 862.654 404.839 863.116C405.812 863.57 406.597 864.21 407.193 865.033C407.797 865.857 408.155 866.82 408.269 867.92H405.169C404.998 867.153 404.608 866.493 403.997 865.939C403.393 865.385 402.584 865.108 401.568 865.108C400.68 865.108 399.903 865.342 399.235 865.811C398.574 866.273 398.06 866.933 397.69 867.793C397.321 868.645 397.136 869.653 397.136 870.818C397.136 872.011 397.317 873.041 397.68 873.908C398.042 874.774 398.553 875.445 399.214 875.921C399.881 876.397 400.666 876.635 401.568 876.635C402.172 876.635 402.719 876.525 403.209 876.305C403.706 876.077 404.121 875.754 404.455 875.335C404.796 874.916 405.034 874.412 405.169 873.822H408.269C408.155 874.881 407.811 875.825 407.236 876.656C406.66 877.487 405.89 878.141 404.924 878.616C403.965 879.092 402.839 879.33 401.547 879.33ZM422.041 872.214V862.636H425.237V879H422.105V876.166H421.935C421.558 877.04 420.955 877.768 420.124 878.35C419.3 878.925 418.274 879.213 417.045 879.213C415.994 879.213 415.063 878.982 414.254 878.521C413.451 878.052 412.819 877.359 412.357 876.443C411.903 875.527 411.676 874.394 411.676 873.045V862.636H414.861V872.661C414.861 873.776 415.17 874.664 415.788 875.325C416.406 875.985 417.208 876.315 418.195 876.315C418.792 876.315 419.385 876.166 419.975 875.868C420.571 875.57 421.065 875.119 421.455 874.515C421.853 873.911 422.048 873.144 422.041 872.214ZM432.703 857.182V879H429.517V857.182H432.703ZM441.75 879.362C440.713 879.362 439.776 879.17 438.938 878.787C438.1 878.396 437.435 877.832 436.945 877.093C436.462 876.354 436.221 875.449 436.221 874.376C436.221 873.453 436.399 872.693 436.754 872.097C437.109 871.5 437.588 871.028 438.192 870.68C438.796 870.332 439.47 870.069 440.216 869.891C440.962 869.714 441.722 869.579 442.496 869.487C443.476 869.373 444.271 869.281 444.882 869.21C445.493 869.131 445.937 869.007 446.214 868.837C446.491 868.666 446.629 868.389 446.629 868.006V867.931C446.629 867.001 446.367 866.28 445.841 865.768C445.323 865.257 444.548 865.001 443.519 865.001C442.446 865.001 441.601 865.239 440.983 865.715C440.372 866.184 439.95 866.706 439.715 867.281L436.722 866.599C437.077 865.605 437.595 864.803 438.277 864.192C438.966 863.574 439.758 863.126 440.653 862.849C441.548 862.565 442.489 862.423 443.476 862.423C444.129 862.423 444.822 862.501 445.553 862.658C446.292 862.807 446.981 863.084 447.62 863.489C448.266 863.893 448.796 864.472 449.207 865.225C449.619 865.971 449.825 866.94 449.825 868.134V879H446.715V876.763H446.587C446.381 877.175 446.072 877.58 445.66 877.977C445.248 878.375 444.719 878.705 444.073 878.968C443.426 879.231 442.652 879.362 441.75 879.362ZM442.443 876.805C443.323 876.805 444.076 876.631 444.701 876.283C445.333 875.935 445.813 875.481 446.139 874.92C446.473 874.352 446.64 873.744 446.64 873.098V870.989C446.526 871.102 446.306 871.209 445.979 871.308C445.66 871.401 445.294 871.482 444.882 871.553C444.47 871.617 444.069 871.678 443.678 871.734C443.288 871.784 442.961 871.827 442.698 871.862C442.08 871.94 441.516 872.072 441.004 872.256C440.5 872.441 440.095 872.707 439.79 873.055C439.492 873.396 439.342 873.851 439.342 874.419C439.342 875.207 439.634 875.804 440.216 876.209C440.798 876.607 441.541 876.805 442.443 876.805ZM461.707 862.636V865.193H452.768V862.636H461.707ZM455.165 858.716H458.351V874.195C458.351 874.813 458.443 875.278 458.628 875.591C458.812 875.896 459.05 876.106 459.342 876.219C459.64 876.326 459.963 876.379 460.311 876.379C460.567 876.379 460.79 876.362 460.982 876.326C461.174 876.29 461.323 876.262 461.43 876.241L462.005 878.872C461.82 878.943 461.557 879.014 461.217 879.085C460.876 879.163 460.449 879.206 459.938 879.213C459.1 879.227 458.319 879.078 457.594 878.766C456.87 878.453 456.284 877.97 455.837 877.317C455.389 876.663 455.165 875.843 455.165 874.856V858.716ZM472.107 879.33C470.495 879.33 469.106 878.986 467.941 878.297C466.784 877.601 465.889 876.624 465.257 875.367C464.632 874.103 464.319 872.622 464.319 870.925C464.319 869.249 464.632 867.771 465.257 866.493C465.889 865.214 466.77 864.217 467.899 863.499C469.035 862.782 470.363 862.423 471.883 862.423C472.807 862.423 473.701 862.576 474.568 862.881C475.434 863.187 476.212 863.666 476.901 864.32C477.59 864.973 478.133 865.822 478.531 866.866C478.929 867.903 479.128 869.163 479.128 870.648V871.777H466.12V869.391H476.006C476.006 868.553 475.836 867.81 475.495 867.164C475.154 866.511 474.674 865.996 474.057 865.619C473.446 865.243 472.728 865.055 471.905 865.055C471.01 865.055 470.228 865.275 469.561 865.715C468.9 866.148 468.389 866.717 468.027 867.42C467.672 868.116 467.494 868.872 467.494 869.689V871.553C467.494 872.647 467.686 873.577 468.069 874.344C468.46 875.112 469.003 875.697 469.699 876.102C470.395 876.5 471.209 876.699 472.139 876.699C472.743 876.699 473.293 876.614 473.79 876.443C474.287 876.266 474.717 876.003 475.079 875.655C475.441 875.307 475.718 874.877 475.91 874.366L478.925 874.909C478.684 875.797 478.25 876.575 477.625 877.242C477.008 877.903 476.23 878.418 475.292 878.787C474.362 879.149 473.3 879.33 472.107 879.33ZM490.857 879V857.182H498.847C500.395 857.182 501.677 857.437 502.693 857.949C503.709 858.453 504.468 859.138 504.973 860.005C505.477 860.864 505.729 861.834 505.729 862.913C505.729 863.822 505.562 864.589 505.228 865.214C504.895 865.832 504.447 866.33 503.886 866.706C503.332 867.075 502.721 867.345 502.054 867.516V867.729C502.778 867.764 503.485 867.999 504.174 868.432C504.87 868.858 505.445 869.465 505.9 870.254C506.354 871.042 506.581 872.001 506.581 873.13C506.581 874.245 506.319 875.246 505.793 876.134C505.275 877.015 504.472 877.714 503.385 878.233C502.299 878.744 500.91 879 499.22 879H490.857ZM494.149 876.177H498.9C500.477 876.177 501.606 875.871 502.288 875.261C502.97 874.65 503.311 873.886 503.311 872.97C503.311 872.281 503.137 871.649 502.789 871.074C502.441 870.499 501.944 870.04 501.297 869.7C500.658 869.359 499.898 869.188 499.017 869.188H494.149V876.177ZM494.149 866.621H498.559C499.298 866.621 499.962 866.479 500.552 866.195C501.148 865.911 501.62 865.513 501.968 865.001C502.324 864.483 502.501 863.872 502.501 863.169C502.501 862.267 502.185 861.511 501.553 860.9C500.921 860.289 499.951 859.984 498.645 859.984H494.149V866.621ZM510.486 857.182H514.481L521.427 874.142H521.683L528.629 857.182H532.624V879H529.492V863.212H529.289L522.854 878.968H520.255L513.82 863.201H513.618V879H510.486V857.182ZM540.702 857.182V879H537.41V857.182H540.702Z" fill="white"/>
<rect x="164" y="945" width="554" height="181" rx="30" fill="#FDC8BB" fill-opacity="0.56"/>
<rect x="318" y="1025" width="262" height="70" rx="10" fill="white"/>
<path d="M399.537 1073.62C397.316 1073.62 395.402 1073.1 393.795 1072.04C392.187 1070.98 390.949 1069.46 390.078 1067.48C389.208 1065.49 388.778 1063.1 388.786 1060.31C388.794 1057.52 389.229 1055.15 390.091 1053.2C390.961 1051.25 392.196 1049.76 393.795 1048.74C395.402 1047.71 397.316 1047.2 399.537 1047.2C401.758 1047.2 403.672 1047.71 405.279 1048.74C406.895 1049.76 408.138 1051.25 409.008 1053.2C409.878 1055.16 410.309 1057.53 410.3 1060.31C410.3 1063.11 409.865 1065.51 408.995 1067.49C408.125 1069.48 406.887 1071 405.279 1072.06C403.68 1073.1 401.766 1073.62 399.537 1073.62ZM399.537 1068.59C400.863 1068.59 401.936 1067.91 402.756 1066.56C403.576 1065.2 403.982 1063.12 403.974 1060.31C403.974 1058.47 403.788 1056.95 403.415 1055.76C403.042 1054.56 402.524 1053.66 401.861 1053.08C401.198 1052.49 400.424 1052.19 399.537 1052.19C398.219 1052.19 397.155 1052.86 396.343 1054.19C395.531 1055.52 395.121 1057.56 395.112 1060.31C395.104 1062.17 395.282 1063.72 395.647 1064.95C396.02 1066.17 396.542 1067.09 397.213 1067.69C397.884 1068.29 398.659 1068.59 399.537 1068.59ZM424.351 1073.62C422.131 1073.62 420.217 1073.1 418.609 1072.04C417.002 1070.98 415.763 1069.46 414.893 1067.48C414.023 1065.49 413.592 1063.1 413.6 1060.31C413.609 1057.52 414.044 1055.15 414.905 1053.2C415.775 1051.25 417.01 1049.76 418.609 1048.74C420.217 1047.71 422.131 1047.2 424.351 1047.2C426.572 1047.2 428.486 1047.71 430.094 1048.74C431.709 1049.76 432.952 1051.25 433.822 1053.2C434.692 1055.16 435.123 1057.53 435.115 1060.31C435.115 1063.11 434.68 1065.51 433.81 1067.49C432.94 1069.48 431.701 1071 430.094 1072.06C428.494 1073.1 426.58 1073.62 424.351 1073.62ZM424.351 1068.59C425.677 1068.59 426.75 1067.91 427.57 1066.56C428.391 1065.2 428.797 1063.12 428.789 1060.31C428.789 1058.47 428.602 1056.95 428.229 1055.76C427.856 1054.56 427.338 1053.66 426.676 1053.08C426.013 1052.49 425.238 1052.19 424.351 1052.19C423.034 1052.19 421.969 1052.86 421.157 1054.19C420.345 1055.52 419.935 1057.56 419.927 1060.31C419.918 1062.17 420.097 1063.72 420.461 1064.95C420.834 1066.17 421.356 1067.09 422.027 1067.69C422.698 1068.29 423.473 1068.59 424.351 1068.59ZM441.012 1073.36C440.118 1073.36 439.351 1073.05 438.713 1072.42C438.083 1071.79 437.773 1071.02 437.781 1070.13C437.773 1069.25 438.083 1068.5 438.713 1067.88C439.351 1067.25 440.118 1066.93 441.012 1066.93C441.858 1066.93 442.603 1067.25 443.25 1067.88C443.904 1068.5 444.236 1069.25 444.244 1070.13C444.236 1070.73 444.078 1071.27 443.772 1071.76C443.473 1072.25 443.08 1072.64 442.591 1072.93C442.11 1073.22 441.584 1073.36 441.012 1073.36ZM457.642 1073.62C455.422 1073.62 453.508 1073.1 451.9 1072.04C450.293 1070.98 449.054 1069.46 448.184 1067.48C447.314 1065.49 446.883 1063.1 446.891 1060.31C446.9 1057.52 447.335 1055.15 448.196 1053.2C449.066 1051.25 450.301 1049.76 451.9 1048.74C453.508 1047.71 455.422 1047.2 457.642 1047.2C459.863 1047.2 461.777 1047.71 463.385 1048.74C465 1049.76 466.243 1051.25 467.113 1053.2C467.983 1055.16 468.414 1057.53 468.406 1060.31C468.406 1063.11 467.971 1065.51 467.101 1067.49C466.231 1069.48 464.992 1071 463.385 1072.06C461.785 1073.1 459.871 1073.62 457.642 1073.62ZM457.642 1068.59C458.968 1068.59 460.041 1067.91 460.862 1066.56C461.682 1065.2 462.088 1063.12 462.08 1060.31C462.08 1058.47 461.893 1056.95 461.52 1055.76C461.147 1054.56 460.629 1053.66 459.967 1053.08C459.304 1052.49 458.529 1052.19 457.642 1052.19C456.325 1052.19 455.26 1052.86 454.448 1054.19C453.636 1055.52 453.226 1057.56 453.218 1060.31C453.209 1062.17 453.388 1063.72 453.752 1064.95C454.125 1066.17 454.647 1067.09 455.318 1067.69C455.989 1068.29 456.764 1068.59 457.642 1068.59ZM482.457 1073.62C480.236 1073.62 478.322 1073.1 476.715 1072.04C475.107 1070.98 473.868 1069.46 472.998 1067.48C472.128 1065.49 471.698 1063.1 471.706 1060.31C471.714 1057.52 472.149 1055.15 473.011 1053.2C473.881 1051.25 475.115 1049.76 476.715 1048.74C478.322 1047.71 480.236 1047.2 482.457 1047.2C484.677 1047.2 486.592 1047.71 488.199 1048.74C489.815 1049.76 491.058 1051.25 491.928 1053.2C492.798 1055.16 493.229 1057.53 493.22 1060.31C493.22 1063.11 492.785 1065.51 491.915 1067.49C491.045 1069.48 489.807 1071 488.199 1072.06C486.6 1073.1 484.686 1073.62 482.457 1073.62ZM482.457 1068.59C483.783 1068.59 484.856 1067.91 485.676 1066.56C486.496 1065.2 486.902 1063.12 486.894 1060.31C486.894 1058.47 486.708 1056.95 486.335 1055.76C485.962 1054.56 485.444 1053.66 484.781 1053.08C484.118 1052.49 483.343 1052.19 482.457 1052.19C481.139 1052.19 480.075 1052.86 479.263 1054.19C478.451 1055.52 478.04 1057.56 478.032 1060.31C478.024 1062.17 478.202 1063.72 478.567 1064.95C478.939 1066.17 479.461 1067.09 480.133 1067.69C480.804 1068.29 481.579 1068.59 482.457 1068.59Z" fill="#FA5656"/>
<path d="M334.193 973.909H340.145L347.261 986.778H347.545L354.662 973.909H360.614L350.031 992.148V1003H344.776V992.148L334.193 973.909ZM369.573 1003.43C367.442 1003.43 365.596 1002.96 364.033 1002.02C362.471 1001.08 361.259 999.771 360.397 998.085C359.545 996.4 359.119 994.43 359.119 992.176C359.119 989.922 359.545 987.948 360.397 986.253C361.259 984.558 362.471 983.241 364.033 982.304C365.596 981.366 367.442 980.898 369.573 980.898C371.704 980.898 373.55 981.366 375.113 982.304C376.675 983.241 377.883 984.558 378.735 986.253C379.597 987.948 380.028 989.922 380.028 992.176C380.028 994.43 379.597 996.4 378.735 998.085C377.883 999.771 376.675 1001.08 375.113 1002.02C373.55 1002.96 371.704 1003.43 369.573 1003.43ZM369.602 999.307C370.757 999.307 371.723 998.99 372.499 998.355C373.276 997.711 373.853 996.849 374.232 995.77C374.621 994.69 374.815 993.488 374.815 992.162C374.815 990.827 374.621 989.619 374.232 988.54C373.853 987.451 373.276 986.584 372.499 985.94C371.723 985.296 370.757 984.974 369.602 984.974C368.418 984.974 367.433 985.296 366.647 985.94C365.871 986.584 365.288 987.451 364.9 988.54C364.521 989.619 364.332 990.827 364.332 992.162C364.332 993.488 364.521 994.69 364.9 995.77C365.288 996.849 365.871 997.711 366.647 998.355C367.433 998.99 368.418 999.307 369.602 999.307ZM398.298 993.824V981.182H403.44V1003H398.455V999.122H398.227C397.735 1000.34 396.925 1001.34 395.798 1002.12C394.681 1002.9 393.303 1003.28 391.665 1003.28C390.235 1003.28 388.971 1002.97 387.872 1002.33C386.783 1001.69 385.931 1000.76 385.315 999.534C384.7 998.303 384.392 996.816 384.392 995.074V981.182H389.534V994.278C389.534 995.661 389.913 996.759 390.67 997.574C391.428 998.388 392.422 998.795 393.653 998.795C394.411 998.795 395.145 998.611 395.855 998.241C396.565 997.872 397.148 997.323 397.602 996.594C398.066 995.855 398.298 994.932 398.298 993.824ZM408.728 1003V981.182H413.714V984.818H413.941C414.339 983.559 415.021 982.588 415.987 981.906C416.962 981.215 418.075 980.869 419.325 980.869C419.609 980.869 419.926 980.884 420.276 980.912C420.636 980.931 420.934 980.964 421.171 981.011V985.741C420.953 985.666 420.608 985.599 420.134 985.543C419.67 985.476 419.22 985.443 418.785 985.443C417.847 985.443 417.004 985.647 416.256 986.054C415.518 986.452 414.935 987.006 414.509 987.716C414.083 988.426 413.87 989.245 413.87 990.173V1003H408.728ZM434.737 1003V973.909H445.873C447.975 973.909 449.722 974.241 451.114 974.903C452.516 975.557 453.562 976.452 454.254 977.588C454.954 978.724 455.305 980.012 455.305 981.452C455.305 982.635 455.077 983.649 454.623 984.491C454.168 985.325 453.558 986.002 452.79 986.523C452.023 987.044 451.166 987.418 450.219 987.645V987.929C451.252 987.986 452.241 988.303 453.188 988.881C454.145 989.449 454.926 990.254 455.532 991.295C456.138 992.337 456.441 993.597 456.441 995.074C456.441 996.58 456.076 997.934 455.347 999.136C454.618 1000.33 453.52 1001.27 452.052 1001.96C450.584 1002.65 448.737 1003 446.512 1003H434.737ZM440.006 998.597H445.674C447.587 998.597 448.965 998.232 449.808 997.503C450.66 996.764 451.086 995.817 451.086 994.662C451.086 993.8 450.873 993.024 450.447 992.332C450.021 991.632 449.415 991.082 448.629 990.685C447.843 990.277 446.905 990.074 445.816 990.074H440.006V998.597ZM440.006 986.281H445.219C446.129 986.281 446.948 986.116 447.677 985.784C448.406 985.443 448.979 984.965 449.396 984.349C449.822 983.724 450.035 982.986 450.035 982.134C450.035 981.007 449.637 980.079 448.842 979.349C448.056 978.62 446.886 978.256 445.333 978.256H440.006V986.281ZM461.026 973.909H467.474L476.111 994.989H476.452L485.088 973.909H491.537V1003H486.48V983.014H486.21L478.17 1002.91H474.392L466.352 982.972H466.082V1003H461.026V973.909ZM502.545 973.909V1003H497.276V973.909H502.545ZM517.947 1003V981.182H523.089V1003H517.947ZM520.532 978.085C519.718 978.085 519.017 977.815 518.43 977.276C517.843 976.726 517.549 976.068 517.549 975.301C517.549 974.525 517.843 973.866 518.43 973.327C519.017 972.777 519.718 972.503 520.532 972.503C521.356 972.503 522.057 972.777 522.634 973.327C523.221 973.866 523.515 974.525 523.515 975.301C523.515 976.068 523.221 976.726 522.634 977.276C522.057 977.815 521.356 978.085 520.532 978.085ZM545.621 986.949L540.933 987.46C540.801 986.987 540.569 986.542 540.237 986.125C539.915 985.708 539.48 985.372 538.93 985.116C538.381 984.861 537.709 984.733 536.913 984.733C535.843 984.733 534.944 984.965 534.214 985.429C533.495 985.893 533.14 986.494 533.149 987.233C533.14 987.867 533.372 988.384 533.845 988.781C534.328 989.179 535.124 989.506 536.232 989.761L539.953 990.557C542.018 991.002 543.552 991.707 544.555 992.673C545.569 993.639 546.08 994.903 546.089 996.466C546.08 997.839 545.678 999.051 544.882 1000.1C544.096 1001.14 543.002 1001.96 541.601 1002.55C540.199 1003.13 538.589 1003.43 536.771 1003.43C534.101 1003.43 531.951 1002.87 530.322 1001.75C528.694 1000.62 527.723 999.056 527.411 997.048L532.425 996.565C532.652 997.55 533.135 998.294 533.874 998.795C534.612 999.297 535.573 999.548 536.757 999.548C537.979 999.548 538.959 999.297 539.697 998.795C540.446 998.294 540.82 997.673 540.82 996.935C540.82 996.31 540.578 995.794 540.095 995.386C539.622 994.979 538.883 994.667 537.879 994.449L534.158 993.668C532.065 993.232 530.517 992.498 529.513 991.466C528.509 990.424 528.012 989.108 528.021 987.517C528.012 986.172 528.376 985.008 529.115 984.023C529.863 983.028 530.9 982.261 532.226 981.722C533.561 981.172 535.1 980.898 536.842 980.898C539.399 980.898 541.411 981.442 542.879 982.531C544.357 983.62 545.27 985.093 545.621 986.949Z" fill="black"/>
<rect x="164" y="1161" width="554" height="85" rx="30" fill="#FDC8BB" fill-opacity="0.56"/>
<path d="M287.261 1189.91H295.116L301.266 1202.08H301.522L307.673 1189.91H315.528L304.888 1209.28V1219H297.9V1209.28L287.261 1189.91ZM323.621 1219.41C321.329 1219.41 319.359 1218.94 317.712 1218.01C316.073 1217.06 314.809 1215.74 313.919 1214.06C313.038 1212.36 312.598 1210.4 312.598 1208.16C312.598 1205.92 313.038 1203.95 313.919 1202.27C314.809 1200.57 316.073 1199.26 317.712 1198.32C319.359 1197.37 321.329 1196.9 323.621 1196.9C325.912 1196.9 327.877 1197.37 329.516 1198.32C331.163 1199.26 332.428 1200.57 333.308 1202.27C334.198 1203.95 334.643 1205.92 334.643 1208.16C334.643 1210.4 334.198 1212.36 333.308 1214.06C332.428 1215.74 331.163 1217.06 329.516 1218.01C327.877 1218.94 325.912 1219.41 323.621 1219.41ZM323.663 1214.17C324.497 1214.17 325.202 1213.91 325.78 1213.4C326.357 1212.89 326.798 1212.18 327.101 1211.27C327.413 1210.36 327.57 1209.31 327.57 1208.12C327.57 1206.91 327.413 1205.85 327.101 1204.94C326.798 1204.03 326.357 1203.32 325.78 1202.81C325.202 1202.3 324.497 1202.04 323.663 1202.04C322.802 1202.04 322.072 1202.3 321.476 1202.81C320.889 1203.32 320.439 1204.03 320.126 1204.94C319.823 1205.85 319.672 1206.91 319.672 1208.12C319.672 1209.31 319.823 1210.36 320.126 1211.27C320.439 1212.18 320.889 1212.89 321.476 1213.4C322.072 1213.91 322.802 1214.17 323.663 1214.17ZM352.278 1209.58V1197.18H359.21V1219H352.591V1214.94H352.364C351.881 1216.27 351.057 1217.33 349.892 1218.12C348.737 1218.9 347.34 1219.28 345.702 1219.28C344.215 1219.28 342.908 1218.94 341.781 1218.26C340.654 1217.58 339.778 1216.63 339.153 1215.41C338.528 1214.18 338.211 1212.74 338.202 1211.09V1197.18H345.148V1209.72C345.157 1210.91 345.47 1211.84 346.085 1212.52C346.701 1213.2 347.539 1213.55 348.599 1213.55C349.291 1213.55 349.911 1213.39 350.46 1213.09C351.019 1212.78 351.459 1212.33 351.781 1211.74C352.113 1211.14 352.278 1210.43 352.278 1209.58ZM378.376 1219.37C376.984 1219.37 375.748 1219.14 374.668 1218.67C373.598 1218.2 372.751 1217.49 372.126 1216.54C371.51 1215.59 371.202 1214.39 371.202 1212.95C371.202 1211.74 371.415 1210.71 371.842 1209.88C372.268 1209.05 372.855 1208.37 373.603 1207.85C374.351 1207.33 375.213 1206.94 376.188 1206.67C377.164 1206.4 378.205 1206.21 379.313 1206.12C380.554 1206 381.553 1205.88 382.31 1205.76C383.068 1205.63 383.617 1205.44 383.958 1205.21C384.308 1204.96 384.484 1204.62 384.484 1204.17V1204.1C384.484 1203.37 384.233 1202.81 383.731 1202.41C383.229 1202.01 382.552 1201.81 381.7 1201.81C380.781 1201.81 380.042 1202.01 379.484 1202.41C378.925 1202.81 378.57 1203.36 378.418 1204.06L372.012 1203.83C372.201 1202.5 372.689 1201.32 373.475 1200.28C374.271 1199.23 375.36 1198.4 376.742 1197.81C378.134 1197.2 379.806 1196.9 381.756 1196.9C383.148 1196.9 384.432 1197.06 385.606 1197.39C386.78 1197.72 387.803 1198.19 388.674 1198.82C389.545 1199.43 390.218 1200.19 390.691 1201.09C391.174 1201.99 391.415 1203.02 391.415 1204.17V1219H384.881V1215.96H384.711C384.323 1216.7 383.826 1217.32 383.219 1217.84C382.623 1218.35 381.917 1218.73 381.103 1218.99C380.298 1219.24 379.389 1219.37 378.376 1219.37ZM380.521 1214.82C381.269 1214.82 381.941 1214.67 382.538 1214.37C383.144 1214.07 383.627 1213.65 383.987 1213.12C384.346 1212.58 384.526 1211.95 384.526 1211.24V1209.17C384.327 1209.27 384.086 1209.37 383.802 1209.45C383.527 1209.54 383.224 1209.62 382.893 1209.7C382.561 1209.77 382.22 1209.84 381.87 1209.89C381.52 1209.95 381.183 1210 380.862 1210.05C380.208 1210.16 379.649 1210.32 379.185 1210.53C378.731 1210.75 378.38 1211.04 378.134 1211.39C377.897 1211.73 377.779 1212.13 377.779 1212.61C377.779 1213.33 378.035 1213.88 378.546 1214.26C379.067 1214.63 379.725 1214.82 380.521 1214.82ZM395.663 1219V1197.18H402.41V1201.16H402.637C403.035 1199.72 403.683 1198.65 404.583 1197.95C405.483 1197.24 406.529 1196.88 407.722 1196.88C408.044 1196.88 408.376 1196.91 408.717 1196.95C409.058 1196.99 409.375 1197.05 409.668 1197.14V1203.18C409.337 1203.06 408.901 1202.97 408.362 1202.91C407.831 1202.84 407.358 1202.81 406.941 1202.81C406.117 1202.81 405.374 1202.99 404.711 1203.36C404.058 1203.72 403.541 1204.23 403.163 1204.88C402.793 1205.52 402.609 1206.28 402.609 1207.15V1219H395.663ZM421.565 1219.41C419.282 1219.41 417.313 1218.96 415.656 1218.06C414.008 1217.15 412.739 1215.86 411.849 1214.18C410.968 1212.5 410.528 1210.5 410.528 1208.18C410.528 1205.92 410.973 1203.95 411.863 1202.27C412.753 1200.57 414.008 1199.26 415.627 1198.32C417.246 1197.37 419.155 1196.9 421.352 1196.9C422.905 1196.9 424.325 1197.14 425.613 1197.62C426.901 1198.11 428.013 1198.82 428.951 1199.77C429.888 1200.71 430.618 1201.88 431.138 1203.28C431.659 1204.66 431.92 1206.24 431.92 1208.03V1209.77H412.957V1205.73H425.457C425.447 1204.99 425.272 1204.34 424.931 1203.76C424.59 1203.18 424.121 1202.73 423.525 1202.41C422.938 1202.08 422.261 1201.91 421.494 1201.91C420.717 1201.91 420.021 1202.09 419.406 1202.44C418.79 1202.78 418.302 1203.25 417.942 1203.84C417.583 1204.43 417.393 1205.1 417.374 1205.85V1209.95C417.374 1210.84 417.549 1211.62 417.9 1212.3C418.25 1212.96 418.747 1213.47 419.391 1213.84C420.035 1214.21 420.802 1214.4 421.692 1214.4C422.308 1214.4 422.867 1214.31 423.369 1214.14C423.871 1213.97 424.301 1213.72 424.661 1213.39C425.021 1213.06 425.291 1212.65 425.471 1212.17L431.849 1212.35C431.584 1213.78 431.001 1215.03 430.102 1216.09C429.211 1217.14 428.042 1217.96 426.593 1218.55C425.144 1219.12 423.468 1219.41 421.565 1219.41Z" fill="black"/>
<path d="M444.061 1219V1189.91H451.092V1201.59H462.555V1189.91H469.572V1219H462.555V1207.31H451.092V1219H444.061ZM484.182 1219.41C481.9 1219.41 479.93 1218.96 478.273 1218.06C476.625 1217.15 475.356 1215.86 474.466 1214.18C473.585 1212.5 473.145 1210.5 473.145 1208.18C473.145 1205.92 473.59 1203.95 474.48 1202.27C475.37 1200.57 476.625 1199.26 478.244 1198.32C479.864 1197.37 481.772 1196.9 483.969 1196.9C485.522 1196.9 486.942 1197.14 488.23 1197.62C489.518 1198.11 490.631 1198.82 491.568 1199.77C492.506 1200.71 493.235 1201.88 493.756 1203.28C494.277 1204.66 494.537 1206.24 494.537 1208.03V1209.77H475.574V1205.73H488.074C488.064 1204.99 487.889 1204.34 487.548 1203.76C487.207 1203.18 486.739 1202.73 486.142 1202.41C485.555 1202.08 484.878 1201.91 484.111 1201.91C483.334 1201.91 482.638 1202.09 482.023 1202.44C481.407 1202.78 480.92 1203.25 480.56 1203.84C480.2 1204.43 480.01 1205.1 479.991 1205.85V1209.95C479.991 1210.84 480.167 1211.62 480.517 1212.3C480.867 1212.96 481.365 1213.47 482.009 1213.84C482.652 1214.21 483.42 1214.4 484.31 1214.4C484.925 1214.4 485.484 1214.31 485.986 1214.14C486.488 1213.97 486.919 1213.72 487.278 1213.39C487.638 1213.06 487.908 1212.65 488.088 1212.17L494.466 1212.35C494.201 1213.78 493.618 1215.03 492.719 1216.09C491.829 1217.14 490.659 1217.96 489.21 1218.55C487.761 1219.12 486.085 1219.41 484.182 1219.41ZM504.235 1219.37C502.843 1219.37 501.607 1219.14 500.528 1218.67C499.458 1218.2 498.61 1217.49 497.985 1216.54C497.37 1215.59 497.062 1214.39 497.062 1212.95C497.062 1211.74 497.275 1210.71 497.701 1209.88C498.127 1209.05 498.714 1208.37 499.462 1207.85C500.21 1207.33 501.072 1206.94 502.048 1206.67C503.023 1206.4 504.065 1206.21 505.173 1206.12C506.413 1206 507.412 1205.88 508.17 1205.76C508.927 1205.63 509.477 1205.44 509.817 1205.21C510.168 1204.96 510.343 1204.62 510.343 1204.17V1204.1C510.343 1203.37 510.092 1202.81 509.59 1202.41C509.088 1202.01 508.411 1201.81 507.559 1201.81C506.64 1201.81 505.902 1202.01 505.343 1202.41C504.784 1202.81 504.429 1203.36 504.278 1204.06L497.871 1203.83C498.061 1202.5 498.549 1201.32 499.335 1200.28C500.13 1199.23 501.219 1198.4 502.602 1197.81C503.994 1197.2 505.665 1196.9 507.616 1196.9C509.008 1196.9 510.291 1197.06 511.465 1197.39C512.639 1197.72 513.662 1198.19 514.533 1198.82C515.405 1199.43 516.077 1200.19 516.55 1201.09C517.033 1201.99 517.275 1203.02 517.275 1204.17V1219H510.741V1215.96H510.57C510.182 1216.7 509.685 1217.32 509.079 1217.84C508.482 1218.35 507.777 1218.73 506.962 1218.99C506.157 1219.24 505.248 1219.37 504.235 1219.37ZM506.38 1214.82C507.128 1214.82 507.8 1214.67 508.397 1214.37C509.003 1214.07 509.486 1213.65 509.846 1213.12C510.206 1212.58 510.386 1211.95 510.386 1211.24V1209.17C510.187 1209.27 509.945 1209.37 509.661 1209.45C509.387 1209.54 509.084 1209.62 508.752 1209.7C508.421 1209.77 508.08 1209.84 507.729 1209.89C507.379 1209.95 507.043 1210 506.721 1210.05C506.067 1210.16 505.509 1210.32 505.045 1210.53C504.59 1210.75 504.24 1211.04 503.994 1211.39C503.757 1211.73 503.638 1212.13 503.638 1212.61C503.638 1213.33 503.894 1213.88 504.406 1214.26C504.926 1214.63 505.585 1214.82 506.38 1214.82ZM528.468 1189.91V1219H521.522V1189.91H528.468ZM545.205 1197.18V1202.3H531.44V1197.18H545.205ZM534.324 1191.95H541.27V1212.14C541.27 1212.57 541.336 1212.91 541.469 1213.18C541.611 1213.43 541.814 1213.62 542.08 1213.73C542.345 1213.83 542.662 1213.89 543.031 1213.89C543.296 1213.89 543.576 1213.86 543.869 1213.82C544.172 1213.76 544.4 1213.71 544.551 1213.67L545.602 1218.69C545.271 1218.78 544.802 1218.9 544.196 1219.04C543.599 1219.18 542.884 1219.27 542.051 1219.31C540.422 1219.39 539.026 1219.2 537.861 1218.74C536.705 1218.28 535.82 1217.56 535.205 1216.59C534.598 1215.61 534.305 1214.38 534.324 1212.91V1191.95ZM556.163 1206.56V1219H549.217V1189.91H555.936V1201.19H556.178C556.67 1199.84 557.475 1198.79 558.592 1198.03C559.719 1197.28 561.097 1196.9 562.726 1196.9C564.26 1196.9 565.595 1197.24 566.732 1197.92C567.868 1198.59 568.749 1199.54 569.374 1200.78C570.008 1202.01 570.321 1203.45 570.311 1205.09V1219H563.365V1206.46C563.375 1205.25 563.071 1204.3 562.456 1203.62C561.84 1202.93 560.974 1202.59 559.857 1202.59C559.127 1202.59 558.483 1202.75 557.925 1203.08C557.375 1203.39 556.945 1203.84 556.632 1204.43C556.329 1205.01 556.173 1205.72 556.163 1206.56ZM578.113 1227.18C577.28 1227.18 576.494 1227.12 575.755 1226.98C575.016 1226.86 574.382 1226.69 573.852 1226.49L575.386 1221.44C576.067 1221.67 576.683 1221.8 577.232 1221.84C577.791 1221.88 578.269 1221.79 578.667 1221.57C579.074 1221.36 579.387 1220.99 579.604 1220.45L579.874 1219.8L572.119 1197.18H579.391L583.411 1212.75H583.638L587.715 1197.18H595.031L586.806 1221.09C586.408 1222.28 585.845 1223.33 585.116 1224.24C584.396 1225.16 583.463 1225.88 582.317 1226.4C581.181 1226.92 579.78 1227.18 578.113 1227.18Z" fill="#F16240"/>
<rect x="470" y="633" width="248" height="163" rx="30" fill="#FDC8BB" fill-opacity="0.56"/>
<rect x="514" y="712" width="161" height="48" rx="10" fill="white"/>
<path d="M517.954 681L511.903 659.182H515.365L519.616 676.078H519.819L524.24 659.182H527.67L532.091 676.089H532.294L536.534 659.182H540.007L533.945 681H530.632L526.04 664.658H525.87L521.278 681H517.954ZM548.194 681.33C546.582 681.33 545.193 680.986 544.028 680.297C542.871 679.601 541.976 678.624 541.344 677.367C540.719 676.103 540.406 674.622 540.406 672.925C540.406 671.249 540.719 669.771 541.344 668.493C541.976 667.214 542.857 666.217 543.986 665.499C545.122 664.782 546.45 664.423 547.97 664.423C548.893 664.423 549.788 664.576 550.655 664.881C551.521 665.187 552.299 665.666 552.988 666.32C553.677 666.973 554.22 667.822 554.618 668.866C555.016 669.903 555.214 671.163 555.214 672.648V673.777H542.207V671.391H552.093C552.093 670.553 551.923 669.81 551.582 669.164C551.241 668.511 550.761 667.996 550.143 667.619C549.533 667.243 548.815 667.055 547.991 667.055C547.097 667.055 546.315 667.275 545.648 667.715C544.987 668.148 544.476 668.717 544.114 669.42C543.759 670.116 543.581 670.872 543.581 671.689V673.553C543.581 674.647 543.773 675.577 544.156 676.344C544.547 677.112 545.09 677.697 545.786 678.102C546.482 678.5 547.295 678.699 548.226 678.699C548.83 678.699 549.38 678.614 549.877 678.443C550.374 678.266 550.804 678.003 551.166 677.655C551.528 677.307 551.805 676.877 551.997 676.366L555.012 676.909C554.771 677.797 554.337 678.575 553.712 679.242C553.094 679.903 552.317 680.418 551.379 680.787C550.449 681.149 549.387 681.33 548.194 681.33ZM558.749 681V664.636H561.934V681H558.749ZM560.357 662.112C559.803 662.112 559.328 661.927 558.93 661.558C558.539 661.181 558.344 660.734 558.344 660.215C558.344 659.69 558.539 659.242 558.93 658.873C559.328 658.496 559.803 658.308 560.357 658.308C560.911 658.308 561.384 658.496 561.774 658.873C562.172 659.242 562.371 659.69 562.371 660.215C562.371 660.734 562.172 661.181 561.774 661.558C561.384 661.927 560.911 662.112 560.357 662.112ZM573.08 687.477C571.781 687.477 570.662 687.307 569.724 686.966C568.794 686.625 568.034 686.174 567.445 685.613C566.855 685.052 566.415 684.438 566.124 683.77L568.862 682.641C569.053 682.953 569.309 683.283 569.629 683.631C569.955 683.987 570.396 684.288 570.95 684.537C571.511 684.786 572.232 684.91 573.112 684.91C574.32 684.91 575.317 684.615 576.106 684.026C576.894 683.443 577.288 682.513 577.288 681.234V678.017H577.086C576.894 678.365 576.617 678.752 576.255 679.178C575.9 679.604 575.41 679.974 574.785 680.286C574.16 680.599 573.347 680.755 572.345 680.755C571.053 680.755 569.888 680.453 568.851 679.849C567.821 679.239 567.004 678.34 566.401 677.154C565.804 675.961 565.506 674.494 565.506 672.754C565.506 671.014 565.8 669.523 566.39 668.28C566.987 667.037 567.803 666.085 568.84 665.425C569.877 664.757 571.053 664.423 572.366 664.423C573.382 664.423 574.202 664.594 574.827 664.935C575.452 665.268 575.939 665.659 576.287 666.107C576.642 666.554 576.915 666.948 577.107 667.289H577.342V664.636H580.463V681.362C580.463 682.768 580.136 683.923 579.483 684.825C578.83 685.727 577.945 686.394 576.83 686.827C575.722 687.261 574.472 687.477 573.08 687.477ZM573.048 678.113C573.964 678.113 574.739 677.9 575.371 677.474C576.01 677.04 576.493 676.423 576.82 675.62C577.153 674.81 577.32 673.841 577.32 672.712C577.32 671.611 577.157 670.641 576.83 669.803C576.504 668.965 576.024 668.312 575.392 667.843C574.76 667.367 573.979 667.129 573.048 667.129C572.089 667.129 571.29 667.378 570.651 667.875C570.012 668.365 569.529 669.033 569.202 669.878C568.883 670.723 568.723 671.668 568.723 672.712C568.723 673.784 568.886 674.725 569.213 675.535C569.54 676.344 570.023 676.977 570.662 677.431C571.308 677.886 572.104 678.113 573.048 678.113ZM587.92 671.284V681H584.735V659.182H587.878V667.3H588.08C588.464 666.419 589.05 665.719 589.838 665.201C590.626 664.683 591.656 664.423 592.928 664.423C594.05 664.423 595.03 664.654 595.868 665.116C596.713 665.577 597.366 666.266 597.828 667.183C598.297 668.092 598.531 669.228 598.531 670.592V681H595.346V670.975C595.346 669.775 595.037 668.844 594.419 668.184C593.801 667.516 592.942 667.183 591.841 667.183C591.088 667.183 590.413 667.342 589.817 667.662C589.227 667.982 588.762 668.45 588.421 669.068C588.087 669.679 587.92 670.418 587.92 671.284ZM610.42 664.636V667.193H601.482V664.636H610.42ZM603.879 660.716H607.065V676.195C607.065 676.813 607.157 677.278 607.342 677.591C607.526 677.896 607.764 678.106 608.055 678.219C608.354 678.326 608.677 678.379 609.025 678.379C609.281 678.379 609.504 678.362 609.696 678.326C609.888 678.29 610.037 678.262 610.143 678.241L610.719 680.872C610.534 680.943 610.271 681.014 609.93 681.085C609.589 681.163 609.163 681.206 608.652 681.213C607.814 681.227 607.033 681.078 606.308 680.766C605.584 680.453 604.998 679.97 604.55 679.317C604.103 678.663 603.879 677.843 603.879 676.856V660.716ZM614.871 671.945C614.871 669.274 615.222 666.817 615.926 664.572C616.629 662.328 617.655 660.258 619.004 658.362H621.923C621.398 659.065 620.908 659.928 620.453 660.95C619.999 661.973 619.601 663.095 619.26 664.317C618.919 665.531 618.653 666.792 618.461 668.099C618.269 669.398 618.173 670.68 618.173 671.945C618.173 673.635 618.34 675.347 618.674 677.08C619.008 678.812 619.459 680.421 620.027 681.906C620.595 683.39 621.227 684.601 621.923 685.538H619.004C617.655 683.642 616.629 681.572 615.926 679.327C615.222 677.083 614.871 674.622 614.871 671.945ZM625.538 681V659.182H628.83V669.601H629.096L638.247 659.182H642.391L633.592 669.004L642.423 681H638.46L631.408 671.252L628.83 674.214V681H625.538ZM650.863 687.477C649.564 687.477 648.445 687.307 647.508 686.966C646.577 686.625 645.817 686.174 645.228 685.613C644.638 685.052 644.198 684.438 643.907 683.77L646.645 682.641C646.836 682.953 647.092 683.283 647.412 683.631C647.738 683.987 648.179 684.288 648.733 684.537C649.294 684.786 650.015 684.91 650.895 684.91C652.103 684.91 653.101 684.615 653.889 684.026C654.677 683.443 655.072 682.513 655.072 681.234V678.017H654.869C654.677 678.365 654.4 678.752 654.038 679.178C653.683 679.604 653.193 679.974 652.568 680.286C651.943 680.599 651.13 680.755 650.128 680.755C648.836 680.755 647.671 680.453 646.634 679.849C645.604 679.239 644.787 678.34 644.184 677.154C643.587 675.961 643.289 674.494 643.289 672.754C643.289 671.014 643.584 669.523 644.173 668.28C644.77 667.037 645.586 666.085 646.623 665.425C647.66 664.757 648.836 664.423 650.15 664.423C651.165 664.423 651.986 664.594 652.611 664.935C653.236 665.268 653.722 665.659 654.07 666.107C654.425 666.554 654.699 666.948 654.89 667.289H655.125V664.636H658.246V681.362C658.246 682.768 657.92 683.923 657.266 684.825C656.613 685.727 655.729 686.394 654.613 686.827C653.506 687.261 652.256 687.477 650.863 687.477ZM650.831 678.113C651.748 678.113 652.522 677.9 653.154 677.474C653.793 677.04 654.276 676.423 654.603 675.62C654.937 674.81 655.104 673.841 655.104 672.712C655.104 671.611 654.94 670.641 654.613 669.803C654.287 668.965 653.807 668.312 653.175 667.843C652.543 667.367 651.762 667.129 650.831 667.129C649.873 667.129 649.074 667.378 648.434 667.875C647.795 668.365 647.312 669.033 646.986 669.878C646.666 670.723 646.506 671.668 646.506 672.712C646.506 673.784 646.67 674.725 646.996 675.535C647.323 676.344 647.806 676.977 648.445 677.431C649.091 677.886 649.887 678.113 650.831 678.113ZM668.644 671.945C668.644 674.622 668.292 677.083 667.589 679.327C666.886 681.572 665.86 683.642 664.51 685.538H661.591C662.117 684.835 662.607 683.972 663.062 682.95C663.516 681.927 663.914 680.808 664.255 679.594C664.596 678.372 664.862 677.108 665.054 675.801C665.246 674.494 665.341 673.209 665.341 671.945C665.341 670.261 665.175 668.553 664.841 666.82C664.507 665.087 664.056 663.479 663.488 661.994C662.92 660.51 662.287 659.299 661.591 658.362H664.51C665.86 660.258 666.886 662.328 667.589 664.572C668.292 666.817 668.644 669.274 668.644 671.945Z" fill="black"/>
<defs>
<filter id="filter0_d_3_3" x="111" y="71" width="675" height="1271" filterUnits="userSpaceOnUse" color-interpolation-filters="sRGB">
<feFlood flood-opacity="0" result="BackgroundImageFix"/>
<feColorMatrix in="SourceAlpha" type="matrix" values="0 0 0 0 0 0 0 0 0 0 0 0 0 0 0 0 0 0 127 0" result="hardAlpha"/>
<feOffset dy="4"/>
<feGaussianBlur stdDeviation="2"/>
<feComposite in2="hardAlpha" operator="out"/>
<feColorMatrix type="matrix" values="0 0 0 0 0 0 0 0 0 0 0 0 0 0 0 0 0 0 0.25 0"/>
<feBlend mode="normal" in2="BackgroundImageFix" result="effect1_dropShadow_3_3"/>
<feBlend mode="normal" in="SourceGraphic" in2="effect1_dropShadow_3_3" result="shape"/>
</filter>
</defs>
</svg>
